<?xml version="1.0" standalone="no"?><!DOCTYPE svg PUBLIC "-//W3C//DTD SVG 1.1//EN" "http://www.w3.org/Graphics/SVG/1.1/DTD/svg11.dtd"><svg t="1651309482687" class="icon" viewBox="0 0 1664 1024" version="1.1" xmlns="http://www.w3.org/2000/svg" p-id="7830" xmlns:xlink="http://www.w3.org/1999/xlink" width="325" height="200"><defs><style type="text/css">@font-face { font-family: feedback-iconfont; src: url("//at.alicdn.com/t/font_1031158_u69w8yhxdu.woff2?t=1630033759944") format("woff2"), url("//at.alicdn.com/t/font_1031158_u69w8yhxdu.woff?t=1630033759944") format("woff"), url("//at.alicdn.com/t/font_1031158_u69w8yhxdu.ttf?t=1630033759944") format("truetype"); }
</style></defs><path d="M562.651127 453.137238c-68.311779 77.100429-134.626138 151.803953-200.541012 226.107994-41.546345 46.739638-83.09269 93.479277-124.639036 140.218915-3.595357 3.994841-7.190714 7.989682-8.78865 12.783491-1.198452 3.595357 0 9.188134 1.99742 12.384007 1.198452 1.597936 7.989682 1.597936 10.386586-0.399484 10.386586-7.190714 20.373688-14.780911 29.961307-22.770593 122.641615-103.466379 244.883746-206.932758 367.525361-310.399136 1.597936-1.198452 3.195873-2.396905 6.391745-4.394325 30.760275 19.57472 61.52055 39.948409 93.479277 58.724161 64.716422 37.950988 129.832329 38.350472 194.149267-0.399484 26.765434-15.979364 53.131384-32.757695 79.097849-50.334995 10.78607-7.190714 17.177816-6.391745 27.164918 1.99742 124.239551 105.463799 248.878587 210.528114 373.917107 315.192946 7.590198 6.391745 18.775752 7.989682 28.36337 11.984523-3.994841-9.587618-5.592777-21.172657-12.384007-28.36337-103.865863-117.847806-208.13121-234.896644-312.396557-352.344966-2.796389-2.796389-5.193293-5.992261-8.78865-10.78607 13.582459-8.78865 26.765434-17.5773 39.548925-26.36595 153.40189-104.265347 306.80378-208.530694 460.20567-312.796041 10.386586-7.190714 21.572141-12.783491 33.157179-17.976784 12.783491-5.592777 20.373688-0.798968 21.172657 13.582459 0 4.793809 0 9.188134 0 13.981943 0 268.453307-1.198452 536.50713 1.198452 804.960438 0.399484 45.541186-53.131384 95.476697-95.476697 95.476697-488.56904-1.597936-977.13808-0.798968-1465.707119-0.798968-57.925193 0-101.468958-43.94325-101.468958-101.868442 0-263.659498 0-527.318996 0-790.978495 0-5.992261-0.399484-11.984523 0-17.976784 1.198452-15.180395 8.78865-22.371109 23.969045-16.378848 11.185554 4.394325 21.971625 9.587618 31.559243 16.378848 150.605501 101.468958 300.811518 202.937917 451.41702 304.806359C525.099623 428.768709 543.076407 440.353747 562.651127 453.137238z" p-id="7831"></path><path d="M835.498759 0.521766c252.873428 0 506.14634 0 759.019767 0 7.190714 0 15.180395-1.597936 21.971625 0.798968 10.386586 3.195873 25.966466 7.190714 27.963886 13.981943 3.195873 11.185554 0.399484 27.164918-6.391745 36.752536-7.989682 11.185554-21.572141 19.57472-34.355632 26.36595C1377.598667 201.861747 1151.091189 325.30233 924.184227 447.544461c-58.324677 31.559243-119.445742 31.559243-177.770419 0C519.107361 324.902846 292.200399 201.062778 65.293437 77.622195c-18.775752-9.987102-37.551504-20.373688-41.546345-45.141702-2.396905-15.979364 3.195873-26.36595 19.175236-29.561823C52.509946 1.320734 62.497048 0.92125 72.484151 0.521766 326.955515 0.521766 581.027395 0.521766 835.498759 0.521766z" p-id="7832"></path></svg>